<?xml version="1.0" encoding="UTF-8" standalone="no"?><!DOCTYPE svg PUBLIC "-//W3C//DTD SVG 1.1//EN" "http://www.w3.org/Graphics/SVG/1.1/DTD/svg11.dtd"><svg width="100%" height="100%" viewBox="0 0 24 24" version="1.1" xmlns="http://www.w3.org/2000/svg" xmlns:xlink="http://www.w3.org/1999/xlink" xml:space="preserve" xmlns:serif="http://www.serif.com/" style="fill-rule:evenodd;clip-rule:evenodd;stroke-linejoin:round;stroke-miterlimit:2;"><g transform="matrix(0.655092,0,0,0.655092,-698.058,-819.987)"><path d="M1068.73,1266.02c-0.014,3.931 1.383,6.969 3.831,9.041c2.051,1.736 4.822,2.937 8.293,3.181c-0,0 0.014,5.521 0.014,5.521l2.565,-1.854c2.174,-1.571 5.913,-2.643 9.086,-4.573c3.661,-2.226 6.636,-5.45 6.564,-11.157c-0.055,-4.318 -1.241,-7.345 -3.654,-9.346c-2.307,-1.914 -5.861,-2.909 -11.009,-2.959c-6.127,-0.059 -10.452,1.401 -12.972,4.202c-1.758,1.954 -2.705,4.58 -2.718,7.944l0,-0Zm3.2,0.011c0.009,-2.45 0.616,-4.391 1.896,-5.814c2.038,-2.265 5.611,-3.191 10.563,-3.143c4.185,0.04 7.122,0.666 8.997,2.222c1.77,1.468 2.457,3.757 2.497,6.924c0.055,4.309 -2.263,6.701 -5.027,8.382c-2.209,1.344 -4.68,2.294 -6.736,3.271c-0,-0 0.026,-2.918 0.026,-2.918l-1.618,0.003c-3.324,0.006 -6.037,-0.763 -7.899,-2.339c-1.775,-1.503 -2.709,-3.738 -2.699,-6.587l0,-0.001Z" style="fill:#536471;"/></g></svg>