<?xml version="1.0" encoding="UTF-8" standalone="no"?><!DOCTYPE svg PUBLIC "-//W3C//DTD SVG 1.1//EN" "http://www.w3.org/Graphics/SVG/1.1/DTD/svg11.dtd"><svg width="100%" height="100%" viewBox="0 0 24 24" version="1.1" xmlns="http://www.w3.org/2000/svg" xmlns:xlink="http://www.w3.org/1999/xlink" xml:space="preserve" xmlns:serif="http://www.serif.com/" style="fill-rule:evenodd;clip-rule:evenodd;stroke-linejoin:round;stroke-miterlimit:2;"><g transform="matrix(0.655092,0,0,0.655092,-820.007,-821.298)"><path d="M1281.4,1281.53l6.364,-6.364l-2.122,-2.121l-2.662,2.662l-0,-12.483c0.012,-2.021 -0.573,-3.519 -1.565,-4.541c-1.005,-1.037 -2.472,-1.632 -4.399,-1.651l-8.015,0l0,3l7.991,0c0.979,0.01 1.759,0.213 2.27,0.74c0.525,0.541 0.725,1.369 0.718,2.44l-0,12.655l-2.823,-2.822l-2.121,2.121l6.364,6.364Zm-22.688,-25.029l-6.364,6.364l2.121,2.121l2.663,-2.663l-0,12.483c-0.012,2.021 0.573,3.52 1.564,4.542c1.006,1.036 2.472,1.632 4.4,1.65l8.014,0l0,-3l-7.991,0c-0.978,-0.01 -1.758,-0.212 -2.269,-0.739c-0.525,-0.541 -0.725,-1.37 -0.718,-2.44l-0,-12.656l2.822,2.823l2.122,-2.121l-6.364,-6.364Z" style="fill:#536471;"/></g></svg>