<?xml version="1.0" encoding="UTF-8" standalone="no"?><!DOCTYPE svg PUBLIC "-//W3C//DTD SVG 1.1//EN" "http://www.w3.org/Graphics/SVG/1.1/DTD/svg11.dtd"><svg width="100%" height="100%" viewBox="0 0 24 24" version="1.1" xmlns="http://www.w3.org/2000/svg" xmlns:xlink="http://www.w3.org/1999/xlink" xml:space="preserve" xmlns:serif="http://www.serif.com/" style="fill-rule:evenodd;clip-rule:evenodd;stroke-linejoin:round;stroke-miterlimit:2;"><g transform="matrix(0.655092,0,0,0.655092,-941.814,-821.104)"><path d="M1454.82,1281.68l1.183,0.642l1.183,-0.642c3.378,-1.869 7.535,-4.663 10.354,-8.071c2.126,-2.57 3.494,-5.489 3.427,-8.613c-0.058,-2.743 -0.908,-4.921 -2.265,-6.425c-1.43,-1.586 -3.436,-2.47 -5.84,-2.452c-2.559,0.02 -4.603,0.864 -6.859,2.784c-2.256,-1.92 -4.3,-2.764 -6.859,-2.784c-2.404,-0.018 -4.41,0.866 -5.84,2.452c-1.357,1.504 -2.207,3.682 -2.265,6.425c-0.067,3.124 1.301,6.043 3.427,8.613c2.819,3.408 6.976,6.202 10.354,8.071Zm1.183,-3.005c3.006,-1.692 6.61,-4.129 9.072,-7.106c1.615,-1.952 2.744,-4.132 2.693,-6.505c-0.075,-3.537 -1.942,-5.767 -4.881,-5.745c-2.163,0.017 -3.774,0.944 -5.754,2.889l-1.111,1.13l-0.019,-0.019l-0.019,0.019l-1.111,-1.13c-1.98,-1.945 -3.591,-2.872 -5.754,-2.889c-2.939,-0.022 -4.806,2.208 -4.881,5.745c-0.051,2.373 1.078,4.553 2.693,6.505c2.462,2.977 6.066,5.414 9.072,7.106Z" style="fill:#536471;"/></g></svg>