<?xml version="1.0" encoding="UTF-8" standalone="no"?><!DOCTYPE svg PUBLIC "-//W3C//DTD SVG 1.1//EN" "http://www.w3.org/Graphics/SVG/1.1/DTD/svg11.dtd"><svg width="100%" height="100%" viewBox="0 0 24 24" version="1.1" xmlns="http://www.w3.org/2000/svg" xmlns:xlink="http://www.w3.org/1999/xlink" xml:space="preserve" xmlns:serif="http://www.serif.com/" style="fill-rule:evenodd;clip-rule:evenodd;stroke-linejoin:round;stroke-miterlimit:2;"><g transform="matrix(0.655092,0,0,0.655092,-1185.5,-820.065)"><path d="M1828.03,1276.99l-12.03,8.722l-0,-27.561c-0,-2.273 1.845,-4.119 4.118,-4.119c0,0 15.74,0 15.74,0c2.273,0 4.119,1.846 4.119,4.119l-0,27.456l-11.947,-8.617Zm-9.03,2.594l-0,-21.433c-0,-0.617 0.501,-1.119 1.118,-1.119l15.74,0c0.618,0 1.119,0.502 1.119,1.119l-0,21.347l-8.952,-6.457l-9.025,6.543Z" style="fill:#536471;"/></g></svg>