<?xml version="1.0" encoding="UTF-8" standalone="no"?><!DOCTYPE svg PUBLIC "-//W3C//DTD SVG 1.1//EN" "http://www.w3.org/Graphics/SVG/1.1/DTD/svg11.dtd"><svg width="100%" height="100%" viewBox="0 0 24 24" version="1.1" xmlns="http://www.w3.org/2000/svg" xmlns:xlink="http://www.w3.org/1999/xlink" xml:space="preserve" xmlns:serif="http://www.serif.com/" style="fill-rule:evenodd;clip-rule:evenodd;stroke-linejoin:round;stroke-miterlimit:2;"><g transform="matrix(0.655092,0,0,0.655092,-1260.19,-820.782)"><path d="M1942,1279.46l-7.75,-0.003c-1.08,0.047 -1.957,0.025 -2.446,-0.528c-0.282,-0.318 -0.355,-0.799 -0.334,-1.441l0,-0.025l0.008,-3.976l-3.2,-0.006l-0.007,3.93c-0.049,1.651 0.409,2.817 1.136,3.638c1.026,1.16 2.73,1.697 4.92,1.608c-0.002,0 0.53,0 1.375,0.001l-0,0.004l6.358,-0.002l4.639,0.002l1.6,0l0,-0.004l1.386,-0.001c2.184,0.087 3.885,-0.45 4.909,-1.608c0.729,-0.824 1.187,-1.995 1.136,-3.655c0,0.017 -0.004,-2.313 -0.004,-2.313l-0.003,-1.6l-3.2,0.006l0.007,3.976c0.022,0.667 -0.051,1.148 -0.333,1.466c-0.489,0.553 -1.366,0.575 -2.412,0.53l-0.034,-0.002l-7.751,0.003Zm-0.051,-23.99l-8.115,8.083l2.121,2.122l4.414,-4.383l0,13.707l3,0.012l0,-13.879l4.607,4.553l2.121,-2.121l-8.148,-8.094Z" style="fill:#536471;"/></g></svg>